<?xml version="1.0" encoding="utf-8"?>
<!-- Generator: Adobe Illustrator 21.0.2, SVG Export Plug-In . SVG Version: 6.00 Build 0)  -->
<svg version="1.1"
	 id="svg8" inkscape:version="1.0.2 (e86c8708, 2021-01-15)" sodipodi:docname="drawing.svg" xmlns:cc="http://creativecommons.org/ns#" xmlns:dc="http://purl.org/dc/elements/1.1/" xmlns:inkscape="http://www.inkscape.org/namespaces/inkscape" xmlns:rdf="http://www.w3.org/1999/02/22-rdf-syntax-ns#" xmlns:sodipodi="http://sodipodi.sourceforge.net/DTD/sodipodi-0.dtd" xmlns:svg="http://www.w3.org/2000/svg"
	 xmlns="http://www.w3.org/2000/svg" xmlns:xlink="http://www.w3.org/1999/xlink" x="0px" y="0px" viewBox="0 0 443 441"
	 style="enable-background:new 0 0 443 441;" xml:space="preserve">
<style type="text/css">
	.st0{display:none;}
	.st1{fill:#D9D8AB;}
	.st2{fill:#522E0A;}
	.st3{fill:#79587B;}
</style>
<sodipodi:namedview  bordercolor="#666666" borderopacity="1.0" id="base" inkscape:current-layer="layer6" inkscape:cx="512.29895" inkscape:cy="628.289" inkscape:document-rotation="0" inkscape:document-units="mm" inkscape:guide-bbox="true" inkscape:lockguides="true" inkscape:object-paths="true" inkscape:pageopacity="0.0" inkscape:pageshadow="2" inkscape:snap-object-midpoints="true" inkscape:window-height="1027" inkscape:window-maximized="0" inkscape:window-width="1920" inkscape:window-x="1024" inkscape:window-y="140" inkscape:zoom="1.1883129" pagecolor="#ffffff" showgrid="false" showguides="true">
	<sodipodi:guide  id="guide975" inkscape:locked="true" orientation="1,0" position="50.081844,200.42709"></sodipodi:guide>
	<sodipodi:guide  id="guide977" inkscape:locked="true" orientation="1,0" position="160.73438,200.4271"></sodipodi:guide>
	<sodipodi:guide  id="guide979" inkscape:locked="true" orientation="0,-1" position="104.32143,257.31252"></sodipodi:guide>
	<sodipodi:guide  id="guide981" inkscape:locked="true" orientation="0,-1" position="104.32143,147.32143"></sodipodi:guide>
	<sodipodi:guide  id="guide983" inkscape:locked="true" orientation="1,0" position="104.76966,82.649839"></sodipodi:guide>
	<sodipodi:guide  id="guide985" inkscape:locked="true" orientation="0,-1" position="50.081843,200.4271"></sodipodi:guide>
	<sodipodi:guide  id="guide2922" orientation="0,-1" position="33.298682,88.563904"></sodipodi:guide>
	<sodipodi:guide  id="guide2924" orientation="0,-1" position="44.268458,52.970128"></sodipodi:guide>
</sodipodi:namedview>
<g id="layer1" inkscape:groupmode="layer" inkscape:label="Layer 1" class="st0">
	
		<image style="display:inline;overflow:visible;enable-background:new    ;" width="1073" height="1073" id="image56" xlink:href="7D1B66E37CDF4CE6.png"  transform="matrix(1.2413 0 0 1.2413 -444.1607 -406.2321)">
	</image>
	
		<image style="display:inline;overflow:visible;enable-background:new    ;" width="1073" height="1073" id="image96" xlink:href="7D1B66E37CDF4CE1.png"  transform="matrix(0.75 0 0 0.75 -188.0133 -232.399)">
	</image>
</g>
<g>
	<path id="path114" class="st1" d="M197.1,389.3c-17.6-2.7-29.3-6.7-52-17.7c-14.3-6.9-16.1-7.6-20.4-7.6c-2.6,0-5.9,0.6-7.5,1.2
		c-1.6,0.7-11.2,6.3-21.5,12.5c-10.2,6.2-18.8,11.1-19,10.9c-0.2-0.2,2.9-8.7,6.8-19c9.8-25.6,10.8-28.8,10.3-33.4
		c-0.4-4.4-2.3-8.2-9.8-20c-13.4-21-21.7-43.3-24.8-66.9c-1.4-10.5-1.6-31.9-0.4-41.7c6-48.5,32.6-91,73.6-117.6
		c9.6-6.3,26.4-14.2,37.8-18c40-13.1,87.4-9.3,125.8,10c42.5,21.4,71.7,57.3,84.4,104.1c4.2,15.7,4.5,18.3,4.5,41.9
		c0,21.4-0.1,22.8-2.2,31.9c-7.1,31.3-20.9,57.7-41.6,79.4c-25,26.2-57.6,43.3-94.1,49.6C235.8,390.8,208.4,391.1,197.1,389.3
		L197.1,389.3z"/>
	<g>
		<path id="path100" inkscape:export-xdpi="368" inkscape:export-ydpi="368" class="st2" d="M241.1,79.2c0.6,7.4,0.2,14.8-1.4,22
			c-7.1,30.9-39.6,44.2-67,51.9c-13.2,3.7-28.6,6.7-39.9,14.9c-10.9,8-18.8,23.4-17.4,37.1c0.8,7.3,5.7,15.5,3.3,22.8
			c-2.2,6.3-9.3,10-13.7,14.6c-7.2,7.5-11.4,17-12,27.4c-1.1,19.8,11.7,38.2,30.8,43.9c16.8,5,36.5,2.5,53.8,2.5h100.2
			c19.1,0,40.9,2.7,57.3-9.3c17.7-13,22.9-39,10.7-57.5c-5.1-7.7-16.1-13-19.1-21.6c-2.7-7.6,3-17.4,3.3-25.2
			c0.6-16.5-9.5-32.3-24-39.8c-7.2-3.8-17.3-3.7-22.4-10.9c-5.2-7.4-3.3-18.9-5.4-27.5C273.3,105.3,259.5,86.7,241.1,79.2
			L241.1,79.2z"/>
		<path id="path64" inkscape:export-xdpi="368.3385" inkscape:export-ydpi="368.3385" class="st3" d="M31.6,437.1
			c23.2-8.5,45.8-20,68.3-30.3c9.9-4.6,21.8-12.4,32.9-13.1c8.7-0.5,17.6,5.2,25.6,8.1c13.1,4.6,26.5,7.5,40.2,9.6
			c53.1,8,109.9-10.9,150-45.7c19.5-17,35.7-38.1,46.9-61.4c10.5-21.8,16.3-45.4,18.4-69.5c1.6-18.8-0.6-37.7-4.5-56.1
			c-4.1-19.3-11.9-38-22.2-54.9c-12.9-21.2-29.7-40.4-49.7-55.3c-64.1-47.9-153.9-51-220.7-6.8C92.4,78,72,99.9,56.8,125
			c-26.1,43-32.6,96.7-19.9,145.1c3.1,11.7,7.6,23.2,12.7,34.1c3.1,6.6,7.8,13.3,8.2,20.7c0.6,11-4.7,23.5-7.4,34.1
			C44,384.9,35.6,410.9,31.6,437.1 M85.3,373.7c3.9-11.1,8.4-22,12.8-32.9c2.2-5.4,5.7-11.8,5-17.8c-0.7-6.9-6.8-13.1-10.4-18.8
			c-6.1-9.5-11.2-19.8-15-30.5c-16.7-46.7-9.9-99.5,18.5-140.2c12.5-17.9,28.8-32.9,47.6-44c76.9-45.3,180.7-14.8,218.3,67.1
			c9.1,19.8,13.9,41.6,14.3,63.4c0.3,19.3-3.6,39.4-10.6,57.3c-7.4,19.1-18.8,36.5-33.1,51.2c-37.6,38.5-93.8,54.8-146.2,42.2
			c-12.3-3-24.1-7.5-35.4-13.3c-6.2-3.2-13.4-9.1-20.7-8.4c-5.8,0.6-11.1,4.7-15.9,7.6C105,362.7,95.7,369.2,85.3,373.7L85.3,373.7z
			"/>
	</g>
</g>
</svg>
